<svg xmlns="http://www.w3.org/2000/svg" width="283" height="286" viewBox="0 0 283 286">
    <g fill="none" fill-rule="evenodd">
        <path fill="#185D8A" fill-rule="nonzero" d="M148.5 260c61.58 0 111.5-49.696 111.5-111S210.08 38 148.5 38 37 87.696 37 149s49.92 111 111.5 111z"/>
        <path fill="#33BFC5" fill-rule="nonzero" d="M258.97 142.412c-1.383 48.772-45.767-25.974-75.652-21.515-39.625 5.908 0-50.724-57.002-40.133-42.06 7.804-2.325-40.021-2.325-40.021.166.111 52.686-14.604 95.576 23.02 0 0 40.677 33.723 39.404 78.649zM130.194 258.868S114.468 147.34 152.81 137.852c38.342-9.49 20.004 63.745 100.19 49.567 0 0-27.84 83.171-122.806 71.449zM97.927 248.183c15.772 8.415-2.665-13.397-15.771-44.953-13.106-31.555 15.938-33.216 20.492-65.88C107.2 104.689 52.279 95 52.279 95c-17.77 24.248-32.986 111.22 45.648 153.183z"/>
        <path fill="#811E68" fill-rule="nonzero" d="M190.01.26c-12.838-1.914-24.775 6.935-26.733 19.844C160.397 39.357 180.914 61 180.914 61S207 45.238 209.741 27.144c1.903-12.91-6.896-24.915-19.731-26.884zm-4.907 32.715c-5.156-.789-8.676-5.58-7.892-10.765.784-5.186 5.547-8.725 10.704-7.937 5.156.788 8.676 5.579 7.892 10.764-.783 5.186-5.547 8.726-10.704 7.938z"/>
        <path fill="#FFF" d="M261.581 42.25c-2.018-.356-4.187-.51-6.498-.471-.765.012-1.396-.597-1.409-1.363-.013-.766.597-1.396 1.362-1.41 2.462-.041 4.81.122 7.026.513.753.133 1.257.852 1.124 1.606-.133.754-.851 1.257-1.605 1.124zm-11.96-1.47c.114.758-.407 1.464-1.164 1.577-2.116.318-4.317.762-6.595 1.326-.743.184-1.494-.27-1.677-1.012-.184-.744.269-1.495 1.011-1.68 2.352-.582 4.638-1.044 6.85-1.376.757-.114 1.462.408 1.576 1.165zm17.46 1.553c.334-.689 1.162-.976 1.85-.642 2.19 1.063 4.166 2.455 5.896 4.2.539.543.536 1.42-.007 1.96s-1.42.536-1.96-.007c-1.502-1.515-3.219-2.727-5.138-3.659-.688-.334-.975-1.163-.641-1.852zm-30.782 1.455c.235.73-.165 1.51-.893 1.745-2.072.67-4.193 1.42-6.36 2.251-.714.274-1.515-.084-1.789-.798-.273-.716.084-1.517.798-1.79 2.209-.847 4.377-1.616 6.5-2.301.729-.235 1.51.165 1.744.893zm-12.797 4.736c.304.703-.018 1.519-.72 1.823-2.028.88-4.087 1.819-6.175 2.814-.69.33-1.517.036-1.846-.655-.33-.691-.036-1.519.655-1.848 2.114-1.008 4.204-1.961 6.264-2.855.702-.304 1.517.019 1.822.721zm53.679 2.66c.681-.348 1.516-.077 1.864.604 1.008 1.974 1.829 4.18 2.456 6.625.19.742-.257 1.497-.998 1.687-.741.19-1.496-.257-1.686-.998-.582-2.27-1.334-4.281-2.239-6.052-.348-.682-.078-1.517.603-1.865zm-66.064 3.13c.35.681.081 1.517-.6 1.867-1.975 1.015-3.97 2.076-5.984 3.178-.671.367-1.513.12-1.88-.551-.367-.672-.121-1.514.55-1.882 2.033-1.112 4.05-2.184 6.048-3.211.68-.35 1.516-.082 1.866.599zm-11.99 6.478c.381.663.154 1.51-.509 1.893-1.938 1.12-3.89 2.272-5.852 3.458-.655.395-1.506.185-1.902-.47-.395-.656-.185-1.508.47-1.904 1.977-1.194 3.945-2.357 5.9-3.486.663-.382 1.51-.154 1.892.509zm82.05 3.296c.76-.076 1.44.48 1.515 1.241.218 2.175.321 4.494.307 6.962-.005.766-.628 1.383-1.394 1.378-.765-.004-1.381-.628-1.377-1.394.014-2.381-.086-4.602-.293-6.67-.076-.762.48-1.441 1.241-1.517zm-93.77 3.717c.408.648.213 1.503-.435 1.911-1.906 1.2-3.82 2.426-5.738 3.677-.641.418-1.5.237-1.917-.404-.418-.642-.237-1.5.404-1.918 1.93-1.26 3.857-2.495 5.777-3.702.647-.408 1.503-.212 1.91.436zm-11.477 7.43c.428.635.26 1.497-.375 1.924-1.868 1.26-3.74 2.54-5.611 3.84-.629.437-1.492.281-1.928-.348-.436-.629-.28-1.492.348-1.929 1.882-1.307 3.764-2.595 5.644-3.862.634-.428 1.495-.26 1.922.375zm105.485 2.476c.762.063 1.33.732 1.266 1.495-.095 1.157-.212 2.342-.351 3.555l-.008.07-.015.067-.049-.01.05.01-.001.001v.001l-.001.004-.003.012-.009.04-.017.075-.018.078c-.03.131-.077.323-.14.57-.124.492-.315 1.206-.579 2.102-.216.735-.986 1.155-1.72.938-.734-.217-1.154-.987-.937-1.722.253-.86.434-1.539.55-2 .059-.23.101-.406.129-.523l.024-.103c.132-1.159.243-2.29.334-3.393.063-.763.732-1.33 1.495-1.267zm-116.716 5.277c.444.623.3 1.488-.323 1.933-1.843 1.316-3.684 2.649-5.522 3.996-.617.452-1.484.318-1.936-.3-.452-.617-.318-1.485.3-1.937 1.846-1.354 3.696-2.693 5.549-4.015.623-.445 1.488-.3 1.932.323zm114.157 6.577c.716.27 1.076 1.071.805 1.787-.626 1.654-1.378 3.482-2.27 5.418-.32.695-1.144 1-1.839.678-.695-.32-.998-1.144-.677-1.84.862-1.87 1.59-3.638 2.195-5.238.27-.716 1.07-1.077 1.786-.805zm-125.199 1.473c.46.612.336 1.481-.276 1.94-1.814 1.363-3.622 2.738-5.422 4.122-.607.467-1.477.353-1.943-.254-.466-.607-.352-1.477.254-1.944 1.81-1.39 3.626-2.772 5.448-4.14.612-.46 1.48-.337 1.94.276zm-10.845 8.3c.472.603.368 1.474-.234 1.947-1.788 1.407-3.567 2.822-5.334 4.243-.596.48-1.468.384-1.948-.213-.479-.596-.384-1.469.213-1.948 1.775-1.428 3.561-2.849 5.357-4.261.602-.473 1.473-.369 1.946.233zm131.385.793c.669.371.911 1.215.54 1.884-.915 1.655-1.93 3.343-3.05 5.032-.423.637-1.283.811-1.92.388-.638-.424-.811-1.284-.388-1.922 1.076-1.621 2.052-3.246 2.935-4.84.37-.67 1.213-.913 1.883-.542zm-142.046 7.74c.486.592.4 1.466-.192 1.952-1.762 1.448-3.512 2.9-5.245 4.354-.586.492-1.46.416-1.952-.171-.491-.587-.414-1.461.172-1.953 1.74-1.46 3.497-2.919 5.267-4.373.592-.486 1.465-.4 1.95.192zM268 109.865c.596.48.692 1.352.214 1.949-.61.762-1.245 1.517-1.904 2.262-.507.573-1.383.627-1.956.12-.573-.508-.626-1.384-.12-1.958.63-.71 1.235-1.43 1.818-2.158.479-.598 1.35-.694 1.948-.215zm-146.337 6.771c.498.581.43 1.457-.151 1.955-.861.737-1.717 1.475-2.568 2.213-.901.78-1.795 1.552-2.68 2.314-.58.499-1.455.433-1.954-.148-.499-.58-.433-1.456.147-1.955.883-.76 1.774-1.529 2.672-2.307.856-.741 1.716-1.482 2.58-2.223.581-.498 1.456-.43 1.954.151zm-10.578 9.087c.495.585.422 1.46-.162 1.954-1.82 1.544-3.608 3.048-5.363 4.517-.588.49-1.461.412-1.952-.175-.49-.587-.413-1.461.175-1.953 1.75-1.465 3.534-2.965 5.35-4.504.583-.495 1.457-.423 1.952.161zm-10.75 9.017c.487.59.404 1.464-.186 1.952-1.846 1.526-3.655 3.014-5.429 4.467-.592.485-1.464.397-1.95-.195-.484-.592-.397-1.466.195-1.95 1.771-1.451 3.577-2.936 5.42-4.46.59-.487 1.463-.404 1.95.186zm-10.842 8.9c.483.594.394 1.467-.2 1.95-1.286 1.049-2.553 2.08-3.801 3.094l-1.65 1.343c-.594.483-1.467.393-1.95-.2-.482-.595-.392-1.468.201-1.95l1.656-1.348 3.795-3.089c.593-.483 1.466-.394 1.949.2zm-10.885 8.864c.484.592.396 1.466-.196 1.95-1.851 1.514-3.657 2.997-5.419 4.457-.589.488-1.462.406-1.95-.183-.488-.59-.406-1.464.183-1.952 1.768-1.465 3.578-2.952 5.432-4.468.593-.485 1.466-.397 1.95.196zm-10.814 8.942c.494.585.422 1.46-.162 1.954-1.816 1.538-3.582 3.057-5.303 4.566-.576.504-1.45.446-1.955-.13-.504-.576-.446-1.451.13-1.956 1.734-1.52 3.512-3.05 5.337-4.596.584-.495 1.458-.422 1.953.162zm-10.584 9.225c.517.564.48 1.44-.084 1.959-1.736 1.595-3.423 3.189-5.065 4.792-.547.535-1.425.524-1.959-.024-.535-.548-.524-1.425.024-1.96 1.664-1.625 3.372-3.238 5.127-4.85.563-.518 1.44-.481 1.957.083zm-10.091 9.746c.554.528.576 1.405.049 1.96-1.605 1.688-3.164 3.399-4.683 5.143-.503.577-1.378.637-1.955.134-.577-.503-.637-1.379-.134-1.956 1.547-1.776 3.134-3.516 4.764-5.232.527-.555 1.404-.577 1.959-.049zm-9.302 10.504c.6.475.702 1.347.227 1.947-1.425 1.804-2.814 3.653-4.17 5.558-.444.623-1.31.768-1.933.324s-.768-1.31-.324-1.933c1.384-1.944 2.8-3.83 4.254-5.668.474-.6 1.345-.702 1.946-.228zm-8.25 11.345c.645.413.833 1.27.42 1.916-1.225 1.915-2.426 3.892-3.604 5.94-.381.664-1.228.892-1.891.51-.663-.381-.892-1.229-.51-1.892 1.2-2.086 2.422-4.1 3.672-6.053.412-.645 1.27-.833 1.914-.42zm-7.111 12.098c.679.353.944 1.19.591 1.869-.529 1.02-1.053 2.059-1.574 3.115-.537 1.09-.987 2.132-1.356 3.129-.266.718-1.063 1.084-1.78.818-.718-.266-1.084-1.063-.818-1.781.405-1.095.894-2.225 1.469-3.392.529-1.073 1.062-2.128 1.6-3.166.352-.68 1.188-.944 1.868-.592zm-5.042 13.131c.765.014 1.374.646 1.36 1.412-.042 2.335.5 4.328 1.503 6.047.385.662.161 1.51-.5 1.896-.66.386-1.509.162-1.894-.5-1.268-2.176-1.93-4.672-1.88-7.493.014-.766.646-1.375 1.41-1.362zm5.414 12.393c.426-.636 1.286-.807 1.922-.382 1.705 1.14 3.735 2.117 6.034 2.942.72.259 1.095 1.052.836 1.773-.258.72-1.052 1.095-1.772.837-2.456-.882-4.701-1.951-6.638-3.247-.636-.425-.807-1.286-.382-1.923zm12.938 5.463c.157-.749.891-1.229 1.64-1.071 2.182.458 4.482.823 6.862 1.108.76.09 1.302.78 1.21 1.54-.09.761-.78 1.304-1.54 1.213-2.446-.293-4.827-.67-7.1-1.148-.75-.157-1.23-.892-1.072-1.642zm48.517.977c.073.762-.485 1.44-1.247 1.512-1.127.109-2.304.215-3.522.316-.762.064-1.432-.503-1.495-1.266-.064-.763.503-1.433 1.265-1.497 1.206-.1 2.371-.205 3.488-.312.761-.074 1.438.485 1.51 1.247zm-10.562.863c.043.765-.541 1.42-1.305 1.462-2.298.13-4.678.231-7.102.293-.765.02-1.4-.585-1.42-1.35-.02-.766.585-1.402 1.35-1.421 2.392-.061 4.744-.162 7.017-.29.764-.043 1.417.542 1.46 1.306zm-23.96.106c.044-.764.7-1.348 1.463-1.304 2.315.134 4.66.209 7.001.235.765.01 1.379.637 1.37 1.402-.009.766-.636 1.38-1.401 1.37-2.38-.026-4.767-.102-7.13-.239-.763-.044-1.347-.7-1.303-1.464zM263.575 116.357c.595.453.56 1.164-.077 1.588-.974.647-1.952 1.25-2.933 1.809-.68.387-1.674.309-2.219-.176-.545-.484-.434-1.191.247-1.58.914-.52 1.83-1.085 2.75-1.696.638-.423 1.637-.399 2.232.055zM117.944 10.413c-2.291-.64-4.535-.865-6.422-.361-.742.198-1.504-.242-1.702-.982-.198-.74.242-1.501.983-1.7 2.573-.687 5.374-.333 7.89.37.74.207 1.17.973.964 1.71-.207.739-.974 1.17-1.713.963zm5.828.789c.366-.674 1.209-.924 1.884-.56.972.526 1.773 1.008 2.334 1.36.28.176.5.32.653.421l.177.119.048.033.036.023.14.094c.122.082.301.203.533.363.463.32 1.137.799 1.995 1.435.616.458.744 1.327.286 1.942s-1.328.743-1.944.286c-.832-.617-1.482-1.078-1.921-1.382-.22-.152-.387-.265-.497-.34l-.123-.081-.03-.02-.006-.004m-.037-.025l-.009-.005-.035-.025-.15-.1c-.135-.09-.337-.221-.596-.384-.518-.326-1.267-.776-2.178-1.269-.674-.365-.925-1.207-.56-1.881m-17.277.867c.695.324.996 1.15.672 1.844-.72 1.542-1.235 3.65-1.39 6.496-.042.766-.697 1.352-1.463 1.31-.766-.041-1.354-.695-1.312-1.46.169-3.09.735-5.568 1.646-7.519.325-.695 1.151-.995 1.847-.671zm28.236 6.637c.492-.59 1.368-.668 1.957-.177 1.5 1.249 3.172 2.697 4.975 4.343.566.518.606 1.395.088 1.961-.518.566-1.397.605-1.963.088-1.77-1.617-3.41-3.037-4.88-4.26-.589-.492-.668-1.367-.177-1.955zm-30.235 7.502c.763-.08 1.446.473 1.527 1.235.22 2.1.572 4.43 1.072 7.007.145.753-.347 1.48-1.1 1.626-.754.146-1.483-.346-1.629-1.098-.512-2.645-.876-5.053-1.107-7.244-.08-.763.473-1.446 1.237-1.526zm39.92 1.163c.54-.544 1.42-.547 1.964-.007 1.47 1.458 2.995 3.026 4.557 4.703.522.561.49 1.44-.071 1.961-.562.522-1.441.49-1.964-.07-1.536-1.65-3.035-3.191-4.48-4.624-.544-.54-.548-1.42-.007-1.963zm8.936 9.434c.582-.5 1.46-.433 1.96.148 1.38 1.602 2.776 3.285 4.18 5.048.478.6.378 1.473-.223 1.95-.6.477-1.474.377-1.952-.223-1.381-1.734-2.755-3.39-4.112-4.965-.5-.582-.435-1.458.147-1.958zm-46.567 2.569c.744-.188 1.5.263 1.687 1.006.286 1.137.596 2.31.93 3.523.204.74-.231 1.503-.971 1.707-.74.203-1.505-.232-1.709-.97-.338-1.232-.653-2.425-.945-3.582-.188-.743.264-1.497 1.008-1.684zm54.744 7.53c.619-.453 1.488-.32 1.942.298 1.263 1.717 2.523 3.5 3.775 5.348.43.635.263 1.497-.373 1.927-.635.43-1.5.263-1.93-.372-1.23-1.818-2.47-3.571-3.712-5.26-.454-.618-.32-1.487.298-1.94zm7.368 10.689c.652-.404 1.508-.204 1.913.446 1.133 1.82 2.251 3.696 3.35 5.628.38.666.146 1.514-.52 1.892-.668.38-1.516.146-1.895-.52-1.081-1.9-2.182-3.745-3.295-5.535-.405-.65-.205-1.506.447-1.911zm6.521 11.24c.682-.352 1.52-.086 1.873.595.991 1.913 1.961 3.877 2.905 5.89.325.693.026 1.52-.67 1.845-.694.325-1.521.025-1.847-.668-.928-1.98-1.881-3.91-2.856-5.792-.353-.68-.086-1.518.595-1.87zm5.617 11.72c.707-.298 1.522.034 1.82.74.833 1.979 1.64 4 2.415 6.067.27.717-.094 1.517-.813 1.786-.719.27-1.52-.094-1.79-.812-.761-2.031-1.554-4.02-2.374-5.964-.298-.707.034-1.52.742-1.818zm4.658 12.098c.73-.24 1.515.155 1.756.883.678 2.052 1.326 4.145 1.938 6.278.212.736-.215 1.505-.953 1.716-.737.212-1.507-.215-1.718-.951-.603-2.097-1.239-4.155-1.906-6.173-.24-.728.155-1.513.883-1.753zm3.693 12.457c.746-.182 1.498.274 1.68 1.018.512 2.088.99 4.212 1.43 6.37.153.752-.332 1.485-1.084 1.638-.752.153-1.486-.331-1.639-1.083-.433-2.123-.903-4.212-1.406-6.265-.183-.744.274-1.496 1.02-1.678zm2.702 12.7c.757-.124 1.472.389 1.596 1.145.349 2.126.662 4.283.936 6.474.095.76-.445 1.454-1.206 1.55-.762.095-1.456-.445-1.551-1.205-.27-2.156-.579-4.279-.921-6.37-.125-.756.389-1.47 1.146-1.594zm1.717 12.843c.764-.067 1.438.498 1.505 1.261.19 2.158.342 4.345.454 6.563.039.765-.55 1.417-1.317 1.456-.767.039-1.42-.55-1.458-1.316-.111-2.183-.261-4.337-.447-6.46-.067-.764.498-1.437 1.263-1.504zm.763 12.962c.767-.012 1.399.6 1.41 1.367.033 2.153.029 4.333-.014 6.54-.015.767-.65 1.376-1.416 1.36-.768-.014-1.377-.647-1.362-1.414.042-2.175.046-4.323.014-6.444-.012-.766.6-1.397 1.368-1.409zm-.157 13c.767.04 1.355.694 1.314 1.46-.115 2.138-.265 4.3-.454 6.488-.065.763-.738 1.329-1.503 1.263-.765-.066-1.33-.738-1.265-1.502.186-2.157.334-4.29.447-6.397.04-.766.695-1.353 1.461-1.312zm-1.027 12.964c.762.09 1.306.78 1.216 1.542-.25 2.115-.536 4.253-.859 6.413-.113.758-.82 1.28-1.579 1.168-.759-.114-1.282-.82-1.17-1.578.32-2.132.601-4.242.849-6.33.09-.76.78-1.305 1.543-1.215zm-1.836 12.852c.755.136 1.257.857 1.121 1.612-.376 2.094-.787 4.209-1.234 6.343-.157.75-.893 1.231-1.644 1.075-.751-.157-1.233-.892-1.076-1.642.441-2.11.847-4.198 1.22-6.267.135-.755.857-1.256 1.613-1.12zm-2.583 12.721c.746.178 1.208.926 1.03 1.672-.493 2.068-1.019 4.155-1.578 6.26-.197.74-.958 1.181-1.7.985-.742-.197-1.183-.957-.986-1.698.553-2.081 1.073-4.145 1.56-6.19.178-.745.927-1.206 1.674-1.029zm-3.272 12.577c.736.215 1.158.987.942 1.722-.597 2.035-1.226 4.086-1.887 6.153-.234.73-1.015 1.133-1.746.9-.732-.233-1.135-1.014-.901-1.744.654-2.047 1.276-4.077 1.868-6.09.215-.735.987-1.157 1.724-.941zm-3.885 12.36c.725.25 1.11 1.04.86 1.764-.697 2.014-1.424 4.042-2.182 6.085-.267.719-1.066 1.086-1.786.82-.72-.267-1.087-1.066-.82-1.784.751-2.025 1.471-4.034 2.16-6.027.252-.725 1.043-1.11 1.768-.859zm-4.447 12.16c.714.281 1.064 1.087.781 1.8-.405 1.026-.82 2.056-1.241 3.089-.29.71-1.1 1.05-1.811.761-.71-.29-1.052-1.1-.762-1.81.418-1.023.828-2.044 1.23-3.06.282-.713 1.09-1.063 1.803-.78z"/>
        <path fill="#FFF" fill-rule="nonzero" d="M142.81 282.156c-2.13.974-4.327 1.616-6.365 1.62-.8 0-1.447.5-1.445 1.114.002.614.652 1.111 1.451 1.11 2.776-.004 5.5-.862 7.84-1.931.688-.314.914-.997.505-1.525-.409-.528-1.297-.702-1.985-.388zM148.416 278.562c.575.564 1.532.586 2.137.05.872-.771 1.576-1.455 2.065-1.947.245-.247.436-.446.567-.586l.152-.162.041-.045.032-.033.12-.129c.106-.112.259-.278.457-.496.395-.437.968-1.083 1.688-1.933.517-.61.405-1.496-.25-1.978-.656-.482-1.606-.378-2.123.233-.699.825-1.25 1.447-1.626 1.861-.187.207-.33.362-.426.464l-.106.113-.025.026-.006.006-2.697 4.556 2.665-4.522-.007.008-.03.033-.13.14c-.116.122-.29.304-.516.532-.452.456-1.111 1.095-1.928 1.818-.605.536-.63 1.427-.054 1.99zM131.511 282.679c.58-.486.655-1.347.166-1.924-1.084-1.28-2.118-3.151-3-5.816-.237-.717-1.013-1.106-1.733-.87-.72.236-1.112 1.008-.875 1.724.957 2.89 2.136 5.1 3.508 6.721.488.577 1.354.65 1.934.165zM156.645 268.754c.686.43 1.631.282 2.112-.33 1.225-1.555 2.575-3.34 4.006-5.346.45-.63.241-1.466-.466-1.867-.706-.4-1.644-.215-2.093.416-1.405 1.97-2.729 3.72-3.928 5.244-.482.61-.316 1.454.37 1.883zM126.021 269.982c.634-.122 1.066-.838.964-1.6-.28-2.098-.504-4.452-.663-7.086-.046-.77-.603-1.348-1.243-1.292-.64.055-1.122.724-1.076 1.493.163 2.704.395 5.138.686 7.327.102.762.698 1.28 1.332 1.158zM163.702 258.8c.672.41 1.533.17 1.923-.537 1.052-1.906 2.128-3.939 3.212-6.095.363-.722.1-1.616-.587-1.997-.688-.38-1.539-.105-1.902.617-1.066 2.12-2.124 4.12-3.158 5.993-.39.706-.16 1.61.512 2.02zM170.865 246.859c.758.342 1.667.04 2.03-.676 1.002-1.974 1.999-4.033 2.98-6.175.333-.728-.022-1.574-.794-1.89-.771-.315-1.667.02-2.001.75-.965 2.106-1.945 4.131-2.93 6.073-.363.716-.043 1.575.715 1.918zM176.709 234.904c.571.282 1.213-.078 1.435-.804.615-2.015 1.216-4.094 1.795-6.234.2-.735-.108-1.536-.688-1.79-.58-.252-1.21.14-1.41.875-.57 2.105-1.16 4.15-1.766 6.132-.221.725.062 1.54.634 1.821z"/>
        <path fill="#FFF" d="M36.161 87.209c2.325-.284 4.798-.25 7.106-.07.765.06 1.336.728 1.276 1.492-.06.764-.728 1.334-1.492 1.275-2.198-.172-4.473-.197-6.553.056-.762.093-1.454-.448-1.547-1.208-.093-.76.449-1.453 1.21-1.545zm12.4 1.987c.146-.752.875-1.243 1.628-1.097 1.027.199 1.873.387 2.464.526.296.07.528.127.688.167l.184.047.05.013.013.004.005.001h.001l-.359 1.34.36-1.34c.74.199 1.18.959.982 1.7-.199.74-.96 1.179-1.701.98m0 0h-.002l-.009-.002-.04-.01c-.036-.01-.091-.025-.164-.043-.147-.037-.364-.09-.645-.157-.56-.131-1.37-.312-2.356-.503-.753-.145-1.245-.874-1.099-1.626m-17.493.785c.472.604.364 1.475-.24 1.947-1.295 1.01-2.123 2.493-2.045 4.84.025.765-.576 1.406-1.342 1.431-.767.026-1.41-.575-1.435-1.34-.105-3.184 1.08-5.532 3.112-7.118.605-.471 1.477-.364 1.95.24zm-2.528 12.095c.705-.303 1.522.023 1.824.727.74 1.718 1.76 3.654 3.11 5.832.404.652.203 1.507-.449 1.91-.652.404-1.508.202-1.912-.449-1.407-2.269-2.496-4.328-3.3-6.198-.304-.704.022-1.52.727-1.822zm6.746 11.768c.618-.454 1.487-.322 1.942.295 1.225 1.662 2.602 3.43 4.143 5.309.486.592.399 1.466-.195 1.952-.593.485-1.468.398-1.954-.194-1.567-1.912-2.974-3.717-4.231-5.423-.455-.616-.323-1.485.295-1.939zm8.513 10.628c.575-.507 1.453-.452 1.96.123 1.423 1.611 2.95 3.292 4.587 5.045.523.56.492 1.438-.069 1.96-.56.523-1.44.492-1.963-.068-1.652-1.77-3.197-3.47-4.638-5.102-.507-.575-.452-1.452.123-1.958zm9.308 10.089c.549-.535 1.428-.523 1.963.026 1.493 1.53 3.061 3.11 4.707 4.74.545.539.549 1.417.009 1.961s-1.42.548-1.964.009c-1.657-1.641-3.236-3.232-4.741-4.774-.535-.55-.524-1.428.026-1.962zm9.608 9.583c.532-.552 1.411-.569 1.964-.037 1.578 1.517 3.219 3.074 4.924 4.672.559.525.587 1.402.062 1.961-.525.559-1.404.587-1.964.062-1.712-1.606-3.361-3.17-4.948-4.696-.553-.532-.57-1.41-.038-1.962zm9.89 9.323c.52-.565 1.398-.602 1.963-.084 1.638 1.502 3.328 3.038 5.072 4.608.57.512.615 1.39.102 1.958-.513.57-1.391.615-1.961.103-1.751-1.576-3.448-3.118-5.092-4.625-.564-.519-.602-1.396-.083-1.96zm10.114 9.138c.509-.573 1.386-.626 1.96-.118 1.666 1.474 3.377 2.976 5.134 4.507.578.504.637 1.38.133 1.957-.505.578-1.382.637-1.96.134-1.762-1.536-3.477-3.043-5.148-4.521-.574-.508-.628-1.385-.119-1.959zm10.288 8.995c.5-.58 1.377-.646 1.958-.146 1.674 1.438 3.386 2.901 5.137 4.388.584.497.655 1.372.158 1.956-.496.583-1.373.654-1.957.158-1.756-1.49-3.472-2.957-5.15-4.4-.581-.499-.647-1.375-.146-1.956zm10.456 8.9c.493-.586 1.369-.662 1.956-.17 1.668 1.4 3.368 2.82 5.102 4.261.59.49.67 1.365.18 1.954-.49.589-1.366.67-1.956.18-1.738-1.445-3.442-2.868-5.113-4.27-.587-.493-.663-1.368-.17-1.955zm10.41 8.667c.487-.592 1.362-.676 1.954-.19.902.742 1.812 1.49 2.73 2.242.914.748 1.823 1.488 2.726 2.22.596.483.687 1.356.204 1.951-.483.595-1.358.686-1.954.203-.907-.735-1.82-1.478-2.736-2.229-.92-.754-1.833-1.502-2.736-2.245-.592-.487-.676-1.361-.189-1.952zm10.823 8.796c.477-.6 1.35-.7 1.951-.224 1.769 1.402 3.518 2.773 5.248 4.114.606.47.716 1.341.246 1.946-.47.606-1.343.716-1.949.246-1.738-1.347-3.495-2.725-5.272-4.133-.6-.477-.701-1.35-.224-1.95zm125.109.845c.385-.663 1.235-.887 1.898-.503 1.036.601 2.03 1.259 2.983 1.966.615.457.744 1.326.286 1.941s-1.328.742-1.944.285c-.87-.646-1.777-1.246-2.72-1.793-.663-.385-.889-1.234-.503-1.896zm8.14 6.16c.577-.505 1.454-.447 1.96.13 1.563 1.782 2.943 3.72 4.125 5.762.384.663.157 1.511-.507 1.895-.664.383-1.514.156-1.898-.507-1.095-1.891-2.37-3.68-3.81-5.322-.505-.577-.447-1.453.13-1.958zm-122.49 1.368c.463-.61 1.334-.731 1.946-.269 1.83 1.384 3.64 2.732 5.426 4.047.618.454.75 1.322.295 1.94-.455.616-1.324.748-1.942.294-1.796-1.322-3.615-2.678-5.455-4.069-.612-.462-.733-1.331-.27-1.943zm10.934 8.086c.446-.623 1.314-.767 1.938-.321 1.893 1.352 3.76 2.664 5.6 3.937.631.436.789 1.3.352 1.93-.436.63-1.302.787-1.932.351-1.853-1.281-3.732-2.602-5.636-3.962-.624-.445-.768-1.312-.322-1.935zm118.826 2.014c.724-.253 1.516.127 1.77.85.788 2.245 1.361 4.553 1.703 6.874.112.757-.413 1.462-1.172 1.574-.759.111-1.464-.413-1.576-1.17-.316-2.142-.845-4.278-1.576-6.36-.254-.723.127-1.515.85-1.768zm-107.659 5.76c.426-.637 1.289-.808 1.927-.382 1.951 1.303 3.872 2.56 5.763 3.773.645.414.832 1.272.418 1.917-.414.644-1.274.831-1.92.417-1.905-1.222-3.84-2.489-5.805-3.801-.638-.426-.809-1.287-.383-1.924zm11.455 7.41c.402-.653 1.257-.856 1.91-.455 2.004 1.23 3.971 2.408 5.903 3.535.662.387.885 1.236.498 1.898-.387.661-1.237.884-1.9.498-1.95-1.138-3.935-2.327-5.955-3.568-.653-.401-.857-1.255-.456-1.908zm98.688.179c.766.048 1.347.707 1.298 1.472-.152 2.399-.575 4.76-1.288 7.023-.23.73-1.01 1.136-1.742.906-.731-.23-1.138-1.009-.907-1.74.641-2.034 1.026-4.174 1.165-6.365.049-.764.708-1.345 1.474-1.296zm-86.9 6.773c.37-.67 1.215-.914 1.887-.544 2.042 1.125 4.042 2.192 6 3.2.681.352.949 1.189.597 1.87-.352.68-1.19.947-1.871.596-1.982-1.02-4.004-2.1-6.068-3.237-.672-.37-.916-1.214-.545-1.885zm12.139 6.339c.33-.692 1.158-.986 1.85-.656 2.078.988 4.104 1.907 6.08 2.761.704.304 1.028 1.121.723 1.824-.304.703-1.122 1.027-1.826.722-2.007-.867-4.064-1.8-6.17-2.803-.693-.329-.987-1.157-.657-1.848zm71.305-.047c.64.421.816 1.282.394 1.921-1.302 1.972-2.904 3.78-4.817 5.368-.59.49-1.466.409-1.956-.18-.49-.59-.409-1.464.181-1.954 1.7-1.41 3.119-3.013 4.274-4.762.422-.64 1.283-.815 1.924-.393zm-58.846 5.528c.274-.715 1.077-1.073 1.793-.8 2.201.84 4.333 1.594 6.396 2.263.73.237 1.128 1.02.892 1.748-.238.729-1.021 1.127-1.75.89-2.11-.684-4.287-1.453-6.53-2.31-.716-.273-1.075-1.075-.8-1.79zm49.029 3.699c.316.698.006 1.52-.693 1.836-2.044.924-4.297 1.66-6.764 2.18-.75.159-1.487-.32-1.646-1.07-.159-.749.32-1.485 1.071-1.644 2.284-.482 4.345-1.158 6.194-1.994.7-.316 1.522-.006 1.838.692zm-36.073.647c.192-.742.95-1.187 1.692-.996 2.277.588 4.46 1.064 6.548 1.437.755.135 1.258.856 1.123 1.61-.135.754-.857 1.256-1.612 1.122-2.162-.387-4.413-.879-6.754-1.483-.742-.191-1.189-.948-.997-1.69zm13.375 2.585c.062-.764.732-1.333 1.497-1.271 2.36.19 4.575.233 6.651.141.767-.033 1.415.56 1.45 1.325.033.765-.561 1.413-1.327 1.447-2.2.097-4.533.052-6.999-.148-.764-.062-1.334-.731-1.272-1.494z"/>
        <path fill="#811E68" fill-rule="nonzero" d="M176 240c3.314 0 6-2.686 6-6s-2.686-6-6-6-6 2.686-6 6 2.686 6 6 6zM239.255 202.668c-6.093-11.615-20.403-16.044-31.925-9.902-17.2 9.22-22.33 38.864-22.33 38.864s28.277 11.853 44.433 3.222c11.526-6.198 15.915-20.569 9.822-32.184zm-29.24 15.602c-2.414-4.667-.692-10.407 3.941-12.895 4.634-2.489 10.323-.698 12.792 3.973 2.469 4.671.692 10.406-3.942 12.895-4.633 2.489-10.318.642-12.791-3.973zM77 164c3.314 0 6-2.686 6-6s-2.686-6-6-6-6 2.686-6 6 2.686 6 6 6zM.087 152.522c-1.12 12.945 8.677 24.293 21.832 25.395C41.568 179.514 62 157.645 62 157.645s-17.633-25.063-36.107-26.55c-13.155-1.158-24.742 8.482-25.806 21.427zm33.308 2.7c-.448 5.177-5.038 9.033-10.3 8.593-5.262-.44-9.181-4.958-8.733-10.136.448-5.178 5.038-9.034 10.3-8.593 5.262.44 9.18 4.958 8.733 10.135zM178 79c3.314 0 6-2.686 6-6s-2.686-6-6-6-6 2.686-6 6 2.686 6 6 6z"/>
    </g>
</svg>
